<svg width="18" height="18" viewBox="0 0 18 18" fill="none" xmlns="http://www.w3.org/2000/svg">
<path fill-rule="evenodd" clip-rule="evenodd" d="M2.9975 7.87454H12.0013C12.4156 7.87454 12.7516 8.21047 12.7516 8.62485V10.8758C12.7516 13.3621 10.736 15.3777 8.24969 15.3777H6.74907C4.26275 15.3777 2.24719 13.3621 2.24719 10.8758V8.62485C2.24719 8.21047 2.58312 7.87454 2.9975 7.87454Z" stroke="#9EA5B8" stroke-width="1.5" stroke-linecap="round" stroke-linejoin="round"/>
<path d="M10.1254 5.6236C9.62519 5.09838 9.62519 4.27304 10.1254 3.74782C10.6256 3.2226 10.6256 2.39726 10.1254 1.87204" stroke="#9EA5B8" stroke-width="1.5" stroke-linecap="round" stroke-linejoin="round"/>
<path d="M7.4993 5.6236C6.9991 5.09838 6.9991 4.27304 7.4993 3.74782C7.99951 3.2226 7.99951 2.39726 7.4993 1.87204" stroke="#9EA5B8" stroke-width="1.5" stroke-linecap="round" stroke-linejoin="round"/>
<path d="M4.8732 5.6236C4.37299 5.09839 4.37299 4.27304 4.8732 3.74782C5.37341 3.2226 5.37341 2.39726 4.8732 1.87204" stroke="#9EA5B8" stroke-width="1.5" stroke-linecap="round" stroke-linejoin="round"/>
<path d="M12.0971 13.213L13.4821 12.896C14.8107 12.592 15.7528 11.41 15.7528 10.047V10.047C15.7528 9.4708 15.5239 8.91824 15.1165 8.51083C14.7091 8.10342 14.1566 7.87454 13.5804 7.87454H11.6261" stroke="#9EA5B8" stroke-width="1.5" stroke-linecap="round" stroke-linejoin="round"/>
</svg>