<svg xmlns="http://www.w3.org/2000/svg" width="18" height="18" viewBox="0 0 18 18" fill="none">
  <path d="M5.99878 15.7529V2.99763C5.99878 2.58324 6.33471 2.24731 6.74909 2.24731H11.251C11.6654 2.24731 12.0013 2.58324 12.0013 2.99763V15.7529" stroke="#4070F4" stroke-width="1.5" stroke-linecap="round" stroke-linejoin="round"/>
  <path d="M15.7528 15.753V5.93363C15.7528 5.5553 15.4461 5.2486 15.0677 5.2486H12.0012" stroke="#4070F4" stroke-width="1.5" stroke-linecap="round" stroke-linejoin="round"/>
  <path d="M5.99888 5.2486H2.93235C2.55402 5.2486 2.24731 5.5553 2.24731 5.93363V15.753" stroke="#4070F4" stroke-width="1.5" stroke-linecap="round" stroke-linejoin="round"/>
  <path d="M12.0012 7.49955H13.877" stroke="#4070F4" stroke-width="1.5" stroke-linecap="round" stroke-linejoin="round"/>
  <path d="M12.0012 9.75046H13.877" stroke="#4070F4" stroke-width="1.5" stroke-linecap="round" stroke-linejoin="round"/>
  <path d="M12.0012 12.0014H13.877" stroke="#4070F4" stroke-width="1.5" stroke-linecap="round" stroke-linejoin="round"/>
  <path d="M4.12305 7.49955H5.99883" stroke="#4070F4" stroke-width="1.5" stroke-linecap="round" stroke-linejoin="round"/>
  <path d="M4.12305 9.75046H5.99883" stroke="#4070F4" stroke-width="1.5" stroke-linecap="round" stroke-linejoin="round"/>
  <path d="M4.12305 12.0014H5.99883" stroke="#4070F4" stroke-width="1.5" stroke-linecap="round" stroke-linejoin="round"/>
  <path d="M7.87451 9.75046H10.1254" stroke="#4070F4" stroke-width="1.5" stroke-linecap="round" stroke-linejoin="round"/>
  <path d="M7.87451 12.0014H10.1254" stroke="#4070F4" stroke-width="1.5" stroke-linecap="round" stroke-linejoin="round"/>
  <path d="M7.87451 7.49955H10.1254" stroke="#4070F4" stroke-width="1.5" stroke-linecap="round" stroke-linejoin="round"/>
  <path d="M7.87451 5.24857H10.1254" stroke="#4070F4" stroke-width="1.5" stroke-linecap="round" stroke-linejoin="round"/>
  <path d="M9.00016 14.2523V15.7529" stroke="#4070F4" stroke-width="1.5" stroke-linecap="round" stroke-linejoin="round"/>
  <path d="M16.5033 15.753H1.49707" stroke="#4070F4" stroke-width="1.5" stroke-linecap="round" stroke-linejoin="round"/>
</svg>