<svg xmlns="http://www.w3.org/2000/svg" width="24" height="25" viewBox="0 0 24 25" fill="none">
<path d="M12 11.75C9.9471 11.75 8.267 10.0707 8.267 8.017H6.767C6.767 10.8993 9.1189 13.25 12 13.25V11.75ZM8.267 8.017C8.267 5.95594 9.95445 4.25 12 4.25V2.75C9.11155 2.75 6.767 5.14206 6.767 8.017H8.267ZM12 4.25C14.0529 4.25 15.733 5.92932 15.733 7.983H17.233C17.233 5.10068 14.8811 2.75 12 2.75V4.25ZM15.733 7.983C15.733 10.0441 14.0456 11.75 12 11.75V13.25C14.8884 13.25 17.233 10.8579 17.233 7.983H15.733ZM19 20.75H5V22.25H19V20.75ZM5 20.75C4.86421 20.75 4.75 20.6358 4.75 20.5H3.25C3.25 21.4642 4.03579 22.25 5 22.25V20.75ZM4.75 20.5V19.5H3.25V20.5H4.75ZM4.75 19.5C4.75 17.7142 6.21421 16.25 8 16.25V14.75C5.38579 14.75 3.25 16.8858 3.25 19.5H4.75ZM8 16.25H16V14.75H8V16.25ZM16 16.25C17.7858 16.25 19.25 17.7142 19.25 19.5H20.75C20.75 16.8858 18.6142 14.75 16 14.75V16.25ZM19.25 19.5V20.5H20.75V19.5H19.25ZM19.25 20.5C19.25 20.6358 19.1358 20.75 19 20.75V22.25C19.9642 22.25 20.75 21.4642 20.75 20.5H19.25Z" fill="#4070F4"/>
</svg>